# xmcd
#
# Track frame offsets:
#	150
#	13508
#	26490
#	40284
#	54598
#	67562
#	82561
#	95299
#	108482
#	123938
#	140246
#	156290
#	171473
#	193089
#	206876
#
# Disc length: 3017 seconds
#
# Revision: 2
# Processed by: cddbd v1.5.2PL0 Copyright (c) Steve Scherf et al.
# Submitted via: audiograbber 1.83.01
#
DISCID=c60bc70f
DTITLE=The Hobart Smiths - Old Time Blues
DYEAR=2011
DGENRE=Blues
TTITLE0=Boll Weevil
TTITLE1=You Just as Well Let Her Go
TTITLE2=Dark Holler Blues
TTITLE3=New Orleans Hop Scop Blues
TTITLE4=Blind Fiddler
TTITLE5=John Henry
TTITLE6=Old Joe's Bar Room
TTITLE7=I've Been Here a Long Time
TTITLE8=Bootlegger Blues
TTITLE9=CC Rider
TTITLE10=The Cuckoo
TTITLE11=Titanic Blues
TTITLE12=River of Jordan
TTITLE13=Operator Blues
TTITLE14=Cyprus Grove
EXTD=Recorded in Richmond, Tasmania.  Mixed and mastered at Seven Mile Beach, T
EXTD=asmania, May - July 2011
EXTT0=
EXTT1=
EXTT2=
EXTT3=
EXTT4=
EXTT5=
EXTT6=
EXTT7=
EXTT8=
EXTT9=
EXTT10=
EXTT11=
EXTT12=
EXTT13=
EXTT14=
PLAYORDER=
